# xmcd
#
# Track frame offsets: 
#        150
#        11166
#        27214
#        41282
#        58140
#        75833
#        89296
#        104731
#        119133
#        129540
#        144636
#        159957
#        174385
#        186814
#
# Disc length: 2783 seconds
#
# Revision: 4
# Processed by: cddbd v1.5.1PL2 Copyright (c) Steve Scherf et al.
# Submitted via: ExactAudioCopy v0.95b3
#
DISCID=b60add0e
DTITLE=The Marques Brothers - The Chess Sessions
DYEAR=2000
DGENRE=
TTITLE0=Roll'n'tumble
TTITLE1=Let me play with your Larsa
TTITLE2=Going away
TTITLE3=Gonna buy me a bulldog
TTITLE4=Cat fish Blues
TTITLE5=Early in the morning
TTITLE6=She likes her bottle gin
TTITLE7=Take a walk
TTITLE8=Nash's Piano Boogie
TTITLE9=That's alright
TTITLE10=Just one more
TTITLE11=Worried about you baby
TTITLE12=Goodbye
TTITLE13=Reconsider baby
EXTD=
EXTT0=
EXTT1=
EXTT2=
EXTT3=
EXTT4=
EXTT5=
EXTT6=
EXTT7=
EXTT8=
EXTT9=
EXTT10=
EXTT11=
EXTT12=
EXTT13=
PLAYORDER=
